<svg class="social__icon" role="img" xmlns="http://www.w3.org/2000/svg" viewBox="0 0 267 267">
  <title>Instagram</title>
  <path fill="#fff" d="M133.5,24.05405c35.6461,0,39.86824.136,53.94536.7782,13.016.59394,20.08493,2.76861,24.78915,4.59681a41.36223,41.36223,0,0,1,15.34993,9.98628,41.36213,41.36213,0,0,1,9.98648,15.35015c1.82819,4.70419,4.00289,11.77311,4.59681,24.78895.64225,14.0773.7782,18.29946.7782,53.94555s-.136,39.86824-.7782,53.94536c-.59392,13.016-2.76862,20.08493-4.59681,24.78915a44.21039,44.21039,0,0,1-25.33642,25.33642c-4.70422,1.82819-11.77313,4.00289-24.78915,4.59681-14.07509.64225-18.29685.7782-53.94536.7782s-39.87027-.136-53.94536-.7782c-13.016-.59392-20.08494-2.76862-24.78914-4.59681a41.36175,41.36175,0,0,1-15.34995-9.98628,41.36275,41.36275,0,0,1-9.98648-15.35014c-1.82821-4.70422-4.00288-11.77313-4.59681-24.789-.64225-14.07729-.7782-18.29943-.7782-53.94553s.136-39.86824.7782-53.94536c.59394-13.016,2.76861-20.08494,4.59681-24.78914a41.36193,41.36193,0,0,1,9.98628-15.34995,41.36231,41.36231,0,0,1,15.35015-9.98648c4.70419-1.82821,11.77311-4.00288,24.78895-4.59681,14.0773-.64225,18.29946-.7782,53.94555-.7782M133.5,0C97.24352,0,92.6973.15356,78.45816.80321c-14.20979.6484-23.914,2.90515-32.40591,6.20537A65.43964,65.43964,0,0,0,22.40664,22.40664,65.43964,65.43964,0,0,0,7.00858,46.05225C3.70837,54.5442,1.45161,64.24837.80321,78.45816.15356,92.6973,0,97.24342,0,133.5s.15356,40.80269.80321,55.04182c.6484,14.2098,2.90515,23.914,6.20537,32.40591a65.44026,65.44026,0,0,0,15.39805,23.64562,65.439,65.439,0,0,0,23.64562,15.39806c8.49194,3.30024,18.19612,5.557,32.40591,6.20537C92.6973,266.84655,97.24352,267,133.5,267s40.80269-.15345,55.04182-.80322c14.2098-.64839,23.914-2.90513,32.40591-6.20537a68.26377,68.26377,0,0,0,39.04368-39.04368c3.30024-8.49194,5.557-18.1961,6.20537-32.40591C266.84643,174.30269,267,169.75649,267,133.5s-.15357-40.8027-.80322-55.04184c-.64839-14.20979-2.90513-23.914-6.20537-32.40591a65.439,65.439,0,0,0-15.39806-23.64562A65.43952,65.43952,0,0,0,220.94773,7.00858c-8.49194-3.30022-18.1961-5.557-32.40591-6.20537C174.30269.15356,169.75649,0,133.5,0Z"/><path fill="#fff" d="M133.5,64.94595A68.554,68.554,0,1,0,202.05405,133.5,68.554,68.554,0,0,0,133.5,64.94595ZM133.5,178A44.5,44.5,0,1,1,178,133.5,44.5,44.5,0,0,1,133.5,178Z"/><circle fill="#fff" cx="204.76264" cy="62.23736" r="16.02"/>
</svg>
